<svg xmlns="http://www.w3.org/2000/svg" xmlns:xlink="http://www.w3.org/1999/xlink" width="15" height="20" viewBox="0 0 15 20"><defs><path id="tzpoa" d="M650 23.48h-1.33s-.08 4.76-4.67 4.76c-4.66 0-4.65-4.76-4.65-4.76H638v.23a6.07 6.07 0 0 0 5.33 5.85V33h1.34v-3.44a6.07 6.07 0 0 0 5.33-5.93v-.15zm-2.67 0v-4.76c0-1.5-1.32-2.72-2.96-2.72h-.74c-1.64 0-2.96 1.22-2.96 2.72v4.76c0 1.5 1.32 2.72 2.96 2.72h.74c1.64 0 2.96-1.22 2.96-2.72z"/></defs><g><g transform="translate(-636 -14)"><use fill="#ccc" xlink:href="#tzpoa"/></g></g></svg>