<svg xmlns="http://www.w3.org/2000/svg" xmlns:xlink="http://www.w3.org/1999/xlink" width="21" height="26" viewBox="0 0 21 26"><defs><path id="a" d="M1316.23 15.46c3.42-2.6 8.12-1.69 10.5 2.03a8.75 8.75 0 0 1-.78 10.42l2.73 4.27a1.9 1.9 0 0 1-.41 2.5c-.75.56-1.78.36-2.3-.45l-2.78-4.36a7.21 7.21 0 0 1-8.83-3c-2.38-3.7-1.54-8.82 1.87-11.41zm.07 9.67c1.56 2.46 4.62 3.06 6.84 1.34 2.22-1.72 3.6-4.98 1.9-7.58a5.28 5.28 0 0 0-7.52-1.35 5.83 5.83 0 0 0-1.22 7.59z"/></defs><g transform="translate(-1310 -11)"><use fill="#666" xlink:href="#a"/></g></svg>