<svg xmlns="http://www.w3.org/2000/svg" xmlns:xlink="http://www.w3.org/1999/xlink" width="28" height="28" viewBox="0 0 28 28"><defs><path id="a" d="M1018.37 947.65l-.73.73c-.73.73-1.91.73-2.64 0l-4.57-4.57a10.68 10.68 0 1 1 3.38-3.37l4.56 4.57c.73.73.73 1.91 0 2.64zm-5.88-12.9a7.72 7.72 0 1 0-15.45 0 7.72 7.72 0 0 0 15.45 0zm-2.43 0c0 .73-.6 1.33-1.32 1.33h-2.65v2.65a1.32 1.32 0 1 1-2.65 0v-2.65h-2.65a1.32 1.32 0 0 1 0-2.65h2.65v-2.65a1.32 1.32 0 0 1 2.65 0v2.65h2.65c.73 0 1.32.59 1.32 1.32z"/></defs><g transform="translate(-993 -923)"><use fill="#fff" xlink:href="#a"/></g></svg>