<?xml version="1.0" encoding="UTF-8"?>
<!DOCTYPE svg PUBLIC "-//W3C//DTD SVG 1.1//EN" "http://www.w3.org/Graphics/SVG/1.1/DTD/svg11.dtd">
<!-- Creator: CorelDRAW X7 -->
<svg xmlns="http://www.w3.org/2000/svg" xml:space="preserve" width="11.153mm" height="6.597mm" version="1.1" style="shape-rendering:geometricPrecision; text-rendering:geometricPrecision; image-rendering:optimizeQuality; fill-rule:evenodd; clip-rule:evenodd"
viewBox="0 0 1115 660"
 xmlns:xlink="http://www.w3.org/1999/xlink">
 <defs>
  <style type="text/css">
   <![CDATA[
    .fil0 {fill:#FEFEFE}
    .fil1 {fill:#FEFEFE;fill-rule:nonzero}
   ]]>
  </style>
 </defs>
 <g id="Слой_x0020_1">
  <metadata id="CorelCorpID_0Corel-Layer"/>
  <g id="_188708248">
   <g>
    <path class="fil0" d="M534 54c135,0 244,106 244,237 0,130 -109,236 -244,236 -134,0 -243,-106 -243,-236 0,-131 109,-237 243,-237zm-163 209c-16,-70 121,-175 188,-161l8 18c-75,33 -137,82 -179,153l-17 -10z"/>
    <path class="fil1" d="M8 345c78,-112 165,-210 266,-272 104,-64 223,-91 361,-61 152,34 277,138 374,217 32,27 61,51 85,67l21 15 -13 21c-85,136 -203,226 -330,277 -102,41 -211,56 -314,49 -103,-8 -201,-38 -281,-88 -77,-49 -138,-116 -172,-200l-5 -13 8 -12zm294 -227c-91,56 -171,143 -242,245 30,67 81,122 145,162 73,46 162,73 257,80 95,7 196,-7 291,-45 110,-44 213,-121 291,-235 -22,-16 -44,-35 -69,-55 -92,-76 -212,-175 -351,-206 -124,-27 -229,-3 -322,54z"/>
   </g>
   <g>
    <path class="fil0" d="M534 54c135,0 244,106 244,237 0,130 -109,236 -244,236 -134,0 -243,-106 -243,-236 0,-131 109,-237 243,-237zm-163 209c-16,-70 121,-175 188,-161l8 18c-75,33 -137,82 -179,153l-17 -10z"/>
    <path class="fil1" d="M8 345c78,-112 165,-210 266,-272 104,-64 223,-91 361,-61 152,34 277,138 374,217 32,27 61,51 85,67l21 15 -13 21c-85,136 -203,226 -330,277 -102,41 -211,56 -314,49 -103,-8 -201,-38 -281,-88 -77,-49 -138,-116 -172,-200l-5 -13 8 -12zm294 -227c-91,56 -171,143 -242,245 30,67 81,122 145,162 73,46 162,73 257,80 95,7 196,-7 291,-45 110,-44 213,-121 291,-235 -22,-16 -44,-35 -69,-55 -92,-76 -212,-175 -351,-206 -124,-27 -229,-3 -322,54z"/>
   </g>
  </g>
 </g>
</svg>
