<svg xmlns="http://www.w3.org/2000/svg" xmlns:xlink="http://www.w3.org/1999/xlink" width="25" height="20" viewBox="0 0 25 20"><defs><path id="a" d="M14.37 30h19.25c.76 0 1.38.67 1.38 1.5s-.62 1.5-1.38 1.5H14.37c-.75 0-1.37-.67-1.37-1.5s.62-1.5 1.37-1.5zm0-7h19.25c.76 0 1.38.67 1.38 1.5s-.62 1.5-1.38 1.5H14.37c-.75 0-1.37-.67-1.37-1.5s.62-1.5 1.37-1.5zm0-7h19.25c.76 0 1.38.67 1.38 1.5s-.62 1.5-1.38 1.5H14.37c-.75 0-1.37-.67-1.37-1.5s.62-1.5 1.37-1.5z"/></defs><g transform="translate(-11 -14)"><use fill="#e8e8e8" xlink:href="#a"/></g></svg>