<?xml version="1.0" encoding="UTF-8"?>
<!DOCTYPE svg PUBLIC "-//W3C//DTD SVG 1.1//EN" "http://www.w3.org/Graphics/SVG/1.1/DTD/svg11.dtd">
<!-- Creator: CorelDRAW X7 -->
<svg xmlns="http://www.w3.org/2000/svg" xml:space="preserve" width="14.025mm" height="10.154mm" version="1.1" style="shape-rendering:geometricPrecision; text-rendering:geometricPrecision; image-rendering:optimizeQuality; fill-rule:evenodd; clip-rule:evenodd"
viewBox="0 0 1403 1015"
 xmlns:xlink="http://www.w3.org/1999/xlink">
 <defs>
  <style type="text/css">
   <![CDATA[
    .fil1 {fill:none}
    .fil0 {fill:#2B2A29}
   ]]>
  </style>
 </defs>
 <g id="Слой_x0020_1">
  <metadata id="CorelCorpID_0Corel-Layer"/>
  <g id="_429257760">
   <g>
    <rect class="fil0" x="578" y="402" width="32.2336" height="32.2336"/>
    <rect class="fil0" x="649" y="402" width="32.2336" height="32.2336"/>
    <rect class="fil0" x="720" y="402" width="32.2336" height="32.2336"/>
    <rect class="fil0" x="578" y="474" width="32.2336" height="32.2336"/>
    <rect class="fil0" x="649" y="473" width="32.2336" height="32.2336"/>
    <rect class="fil0" x="720" y="473" width="32.2336" height="32.2336"/>
    <rect class="fil0" x="578" y="545" width="32.2336" height="32.2336"/>
    <rect class="fil0" x="649" y="545" width="32.2336" height="32.2336"/>
    <rect class="fil0" x="720" y="545" width="32.2336" height="32.2336"/>
    <rect class="fil0" x="578" y="616" width="32.2336" height="32.2336"/>
    <rect class="fil0" x="649" y="616" width="32.2336" height="32.2336"/>
    <rect class="fil0" x="720" y="616" width="32.2336" height="32.2336"/>
    <g>
     <rect class="fil0" x="791" y="402" width="32.2336" height="32.2336"/>
     <rect class="fil0" x="791" y="473" width="32.2336" height="32.2336"/>
     <rect class="fil0" x="791" y="545" width="32.2336" height="32.2336"/>
     <rect class="fil0" x="791" y="616" width="32.2336" height="32.2336"/>
    </g>
   </g>
   <rect class="fil1" width="1402" height="1015"/>
  </g>
 </g>
</svg>
