<svg xmlns="http://www.w3.org/2000/svg" xmlns:xlink="http://www.w3.org/1999/xlink" width="22" height="26" viewBox="0 0 22 26"><defs><path id="mi99a" d="M283.44 15.46a7.9 7.9 0 0 1 11.16 2.03 8.35 8.35 0 0 1-.84 10.42l2.9 4.27c.55.8.36 1.93-.44 2.5-.8.56-1.89.36-2.44-.45l-2.96-4.36a7.92 7.92 0 0 1-9.37-3 8.32 8.32 0 0 1 1.99-11.41zm.07 9.66a5.08 5.08 0 0 0 7.26 1.35c2.36-1.72 3.83-4.98 2.02-7.58a5.83 5.83 0 0 0-7.99-1.35 5.6 5.6 0 0 0-1.29 7.58z"/></defs><g><g transform="translate(-277 -11)"><use fill="#ccc" xlink:href="#mi99a"/></g></g></svg>